<mxfile host="www.draw.io" modified="2019-10-29T20:41:38.341Z" agent="Mozilla/5.0 (Windows NT 6.1; Win64; x64; rv:70.0) Gecko/20100101 Firefox/70.0" etag="TJFCFmDtw8Z5eHw-DhrF" version="12.1.8" type="github" pages="1">
  <diagram id="7ADoNmAaZPznZKgF0rQG" name="Page-1">
    <mxGraphModel dx="782" dy="433" grid="1" gridSize="6" guides="1" tooltips="1" connect="1" arrows="1" fold="1" page="1" pageScale="1" pageWidth="1100" pageHeight="850" math="0" shadow="0">
      <root>
        <mxCell id="0"/>
        <mxCell id="1" parent="0"/>
        <mxCell id="xiWQu05hAZuDvdlsUDa0-46" value="" style="rounded=0;whiteSpace=wrap;html=1;strokeWidth=1;" vertex="1" parent="1">
          <mxGeometry x="168" y="408" width="384" height="240" as="geometry"/>
        </mxCell>
        <mxCell id="xiWQu05hAZuDvdlsUDa0-84" value="" style="rounded=0;whiteSpace=wrap;html=1;strokeWidth=1;" vertex="1" parent="1">
          <mxGeometry x="493" y="450" width="4" height="198" as="geometry"/>
        </mxCell>
        <mxCell id="xiWQu05hAZuDvdlsUDa0-83" value="" style="rounded=0;whiteSpace=wrap;html=1;strokeWidth=1;" vertex="1" parent="1">
          <mxGeometry x="465" y="450" width="4" height="198" as="geometry"/>
        </mxCell>
        <mxCell id="xiWQu05hAZuDvdlsUDa0-82" value="" style="rounded=0;whiteSpace=wrap;html=1;strokeWidth=1;" vertex="1" parent="1">
          <mxGeometry x="437" y="450" width="4" height="198" as="geometry"/>
        </mxCell>
        <mxCell id="xiWQu05hAZuDvdlsUDa0-90" value="" style="rounded=0;whiteSpace=wrap;html=1;strokeWidth=1;" vertex="1" parent="1">
          <mxGeometry x="421" y="486" width="84" height="162" as="geometry"/>
        </mxCell>
        <mxCell id="xiWQu05hAZuDvdlsUDa0-76" value="" style="rounded=0;whiteSpace=wrap;html=1;strokeWidth=1;" vertex="1" parent="1">
          <mxGeometry x="272" y="414" width="4" height="234" as="geometry"/>
        </mxCell>
        <mxCell id="xiWQu05hAZuDvdlsUDa0-75" value="" style="rounded=0;whiteSpace=wrap;html=1;strokeWidth=1;" vertex="1" parent="1">
          <mxGeometry x="246" y="414" width="4" height="234" as="geometry"/>
        </mxCell>
        <mxCell id="xiWQu05hAZuDvdlsUDa0-74" value="" style="rounded=0;whiteSpace=wrap;html=1;strokeWidth=1;" vertex="1" parent="1">
          <mxGeometry x="220" y="414" width="4" height="234" as="geometry"/>
        </mxCell>
        <mxCell id="xiWQu05hAZuDvdlsUDa0-73" value="" style="rounded=0;whiteSpace=wrap;html=1;strokeWidth=1;" vertex="1" parent="1">
          <mxGeometry x="193" y="414" width="4" height="234" as="geometry"/>
        </mxCell>
        <mxCell id="xiWQu05hAZuDvdlsUDa0-87" value="" style="rounded=0;whiteSpace=wrap;html=1;strokeWidth=1;" vertex="1" parent="1">
          <mxGeometry x="185" y="419" width="104" height="56" as="geometry"/>
        </mxCell>
        <mxCell id="xiWQu05hAZuDvdlsUDa0-1" value="" style="rounded=0;whiteSpace=wrap;html=1;" vertex="1" parent="1">
          <mxGeometry x="168" y="96" width="384" height="168" as="geometry"/>
        </mxCell>
        <mxCell id="xiWQu05hAZuDvdlsUDa0-34" value="" style="rounded=0;whiteSpace=wrap;html=1;strokeWidth=1;" vertex="1" parent="1">
          <mxGeometry x="405" y="96" width="4" height="168" as="geometry"/>
        </mxCell>
        <mxCell id="xiWQu05hAZuDvdlsUDa0-33" value="" style="rounded=0;whiteSpace=wrap;html=1;strokeWidth=1;" vertex="1" parent="1">
          <mxGeometry x="378" y="96" width="4" height="168" as="geometry"/>
        </mxCell>
        <mxCell id="xiWQu05hAZuDvdlsUDa0-32" value="" style="rounded=0;whiteSpace=wrap;html=1;strokeWidth=1;" vertex="1" parent="1">
          <mxGeometry x="352" y="96" width="4" height="168" as="geometry"/>
        </mxCell>
        <mxCell id="xiWQu05hAZuDvdlsUDa0-45" value="" style="rounded=0;whiteSpace=wrap;html=1;strokeWidth=1;" vertex="1" parent="1">
          <mxGeometry x="348.5" y="114" width="67" height="72" as="geometry"/>
        </mxCell>
        <mxCell id="xiWQu05hAZuDvdlsUDa0-2" value="" style="rounded=0;whiteSpace=wrap;html=1;" vertex="1" parent="1">
          <mxGeometry x="150" y="24" width="420" height="72" as="geometry"/>
        </mxCell>
        <mxCell id="xiWQu05hAZuDvdlsUDa0-3" value="" style="line;strokeWidth=1;html=1;" vertex="1" parent="1">
          <mxGeometry x="150" y="86" width="420" height="10" as="geometry"/>
        </mxCell>
        <mxCell id="xiWQu05hAZuDvdlsUDa0-4" value="" style="line;strokeWidth=1;direction=south;html=1;" vertex="1" parent="1">
          <mxGeometry x="150" y="32" width="10" height="59" as="geometry"/>
        </mxCell>
        <mxCell id="xiWQu05hAZuDvdlsUDa0-5" value="" style="line;strokeWidth=1;direction=south;html=1;" vertex="1" parent="1">
          <mxGeometry x="560" y="32" width="10" height="59" as="geometry"/>
        </mxCell>
        <mxCell id="xiWQu05hAZuDvdlsUDa0-6" value="" style="line;strokeWidth=1;html=1;" vertex="1" parent="1">
          <mxGeometry x="155" y="31" width="411" height="1" as="geometry"/>
        </mxCell>
        <mxCell id="xiWQu05hAZuDvdlsUDa0-7" value="" style="line;strokeWidth=1;direction=south;html=1;" vertex="1" parent="1">
          <mxGeometry x="168" y="96" width="10" height="168" as="geometry"/>
        </mxCell>
        <mxCell id="xiWQu05hAZuDvdlsUDa0-8" value="" style="line;strokeWidth=1;direction=south;html=1;" vertex="1" parent="1">
          <mxGeometry x="542" y="96" width="10" height="168" as="geometry"/>
        </mxCell>
        <mxCell id="xiWQu05hAZuDvdlsUDa0-9" value="" style="line;strokeWidth=1;direction=south;html=1;" vertex="1" parent="1">
          <mxGeometry x="163" y="32" width="10" height="60" as="geometry"/>
        </mxCell>
        <mxCell id="xiWQu05hAZuDvdlsUDa0-10" value="" style="line;strokeWidth=1;direction=south;html=1;" vertex="1" parent="1">
          <mxGeometry x="185" y="32" width="10" height="58" as="geometry"/>
        </mxCell>
        <mxCell id="xiWQu05hAZuDvdlsUDa0-11" value="" style="line;strokeWidth=1;direction=south;html=1;" vertex="1" parent="1">
          <mxGeometry x="208" y="32" width="10" height="58" as="geometry"/>
        </mxCell>
        <mxCell id="xiWQu05hAZuDvdlsUDa0-12" value="" style="line;strokeWidth=1;direction=south;html=1;" vertex="1" parent="1">
          <mxGeometry x="232" y="32" width="10" height="58" as="geometry"/>
        </mxCell>
        <mxCell id="xiWQu05hAZuDvdlsUDa0-13" value="" style="line;strokeWidth=1;direction=south;html=1;" vertex="1" parent="1">
          <mxGeometry x="256" y="32" width="10" height="59" as="geometry"/>
        </mxCell>
        <mxCell id="xiWQu05hAZuDvdlsUDa0-14" value="" style="line;strokeWidth=1;direction=south;html=1;" vertex="1" parent="1">
          <mxGeometry x="280" y="32" width="10" height="58" as="geometry"/>
        </mxCell>
        <mxCell id="xiWQu05hAZuDvdlsUDa0-15" value="" style="line;strokeWidth=1;direction=south;html=1;" vertex="1" parent="1">
          <mxGeometry x="304" y="32" width="10" height="58" as="geometry"/>
        </mxCell>
        <mxCell id="xiWQu05hAZuDvdlsUDa0-16" value="" style="line;strokeWidth=1;direction=south;html=1;" vertex="1" parent="1">
          <mxGeometry x="328" y="32" width="10" height="59" as="geometry"/>
        </mxCell>
        <mxCell id="xiWQu05hAZuDvdlsUDa0-17" value="" style="line;strokeWidth=1;direction=south;html=1;" vertex="1" parent="1">
          <mxGeometry x="354" y="32" width="10" height="59" as="geometry"/>
        </mxCell>
        <mxCell id="xiWQu05hAZuDvdlsUDa0-18" value="" style="line;strokeWidth=1;direction=south;html=1;" vertex="1" parent="1">
          <mxGeometry x="380" y="32" width="10" height="58" as="geometry"/>
        </mxCell>
        <mxCell id="xiWQu05hAZuDvdlsUDa0-19" value="" style="line;strokeWidth=1;direction=south;html=1;" vertex="1" parent="1">
          <mxGeometry x="404" y="32" width="10" height="58" as="geometry"/>
        </mxCell>
        <mxCell id="xiWQu05hAZuDvdlsUDa0-20" value="" style="line;strokeWidth=1;direction=south;html=1;" vertex="1" parent="1">
          <mxGeometry x="428" y="32" width="10" height="59" as="geometry"/>
        </mxCell>
        <mxCell id="xiWQu05hAZuDvdlsUDa0-21" value="" style="line;strokeWidth=1;direction=south;html=1;" vertex="1" parent="1">
          <mxGeometry x="452" y="32" width="10" height="58" as="geometry"/>
        </mxCell>
        <mxCell id="xiWQu05hAZuDvdlsUDa0-22" value="" style="line;strokeWidth=1;direction=south;html=1;" vertex="1" parent="1">
          <mxGeometry x="476" y="32" width="10" height="58" as="geometry"/>
        </mxCell>
        <mxCell id="xiWQu05hAZuDvdlsUDa0-23" value="" style="line;strokeWidth=1;direction=south;html=1;" vertex="1" parent="1">
          <mxGeometry x="500" y="32" width="10" height="58" as="geometry"/>
        </mxCell>
        <mxCell id="xiWQu05hAZuDvdlsUDa0-24" value="" style="line;strokeWidth=1;direction=south;html=1;" vertex="1" parent="1">
          <mxGeometry x="524" y="32" width="10" height="58" as="geometry"/>
        </mxCell>
        <mxCell id="xiWQu05hAZuDvdlsUDa0-25" value="" style="line;strokeWidth=1;direction=south;html=1;" vertex="1" parent="1">
          <mxGeometry x="548" y="32" width="10" height="58" as="geometry"/>
        </mxCell>
        <mxCell id="xiWQu05hAZuDvdlsUDa0-26" value="" style="rounded=0;whiteSpace=wrap;html=1;strokeWidth=1;" vertex="1" parent="1">
          <mxGeometry x="192" y="96" width="4" height="168" as="geometry"/>
        </mxCell>
        <mxCell id="xiWQu05hAZuDvdlsUDa0-27" value="" style="rounded=0;whiteSpace=wrap;html=1;strokeWidth=1;" vertex="1" parent="1">
          <mxGeometry x="218" y="96" width="4" height="168" as="geometry"/>
        </mxCell>
        <mxCell id="xiWQu05hAZuDvdlsUDa0-28" value="" style="rounded=0;whiteSpace=wrap;html=1;strokeWidth=1;" vertex="1" parent="1">
          <mxGeometry x="244" y="96" width="4" height="168" as="geometry"/>
        </mxCell>
        <mxCell id="xiWQu05hAZuDvdlsUDa0-29" value="" style="rounded=0;whiteSpace=wrap;html=1;strokeWidth=1;" vertex="1" parent="1">
          <mxGeometry x="272" y="96" width="4" height="168" as="geometry"/>
        </mxCell>
        <mxCell id="xiWQu05hAZuDvdlsUDa0-30" value="" style="rounded=0;whiteSpace=wrap;html=1;strokeWidth=1;" vertex="1" parent="1">
          <mxGeometry x="300" y="96" width="4" height="168" as="geometry"/>
        </mxCell>
        <mxCell id="xiWQu05hAZuDvdlsUDa0-31" value="" style="rounded=0;whiteSpace=wrap;html=1;strokeWidth=1;" vertex="1" parent="1">
          <mxGeometry x="326" y="96" width="4" height="168" as="geometry"/>
        </mxCell>
        <mxCell id="xiWQu05hAZuDvdlsUDa0-35" value="" style="rounded=0;whiteSpace=wrap;html=1;strokeWidth=1;" vertex="1" parent="1">
          <mxGeometry x="434" y="96" width="4" height="168" as="geometry"/>
        </mxCell>
        <mxCell id="xiWQu05hAZuDvdlsUDa0-36" value="" style="rounded=0;whiteSpace=wrap;html=1;strokeWidth=1;" vertex="1" parent="1">
          <mxGeometry x="462" y="96" width="4" height="168" as="geometry"/>
        </mxCell>
        <mxCell id="xiWQu05hAZuDvdlsUDa0-37" value="" style="rounded=0;whiteSpace=wrap;html=1;strokeWidth=1;" vertex="1" parent="1">
          <mxGeometry x="488" y="96" width="4" height="168" as="geometry"/>
        </mxCell>
        <mxCell id="xiWQu05hAZuDvdlsUDa0-38" value="" style="rounded=0;whiteSpace=wrap;html=1;strokeWidth=1;" vertex="1" parent="1">
          <mxGeometry x="515" y="96" width="4" height="168" as="geometry"/>
        </mxCell>
        <mxCell id="xiWQu05hAZuDvdlsUDa0-41" value="" style="rounded=0;whiteSpace=wrap;html=1;strokeWidth=1;" vertex="1" parent="1">
          <mxGeometry x="227.5" y="114" width="67" height="72" as="geometry"/>
        </mxCell>
        <mxCell id="xiWQu05hAZuDvdlsUDa0-42" value="" style="rounded=0;whiteSpace=wrap;html=1;strokeWidth=1;" vertex="1" parent="1">
          <mxGeometry x="230" y="116" width="62" height="68" as="geometry"/>
        </mxCell>
        <mxCell id="xiWQu05hAZuDvdlsUDa0-44" value="" style="rounded=0;whiteSpace=wrap;html=1;strokeWidth=1;" vertex="1" parent="1">
          <mxGeometry x="351" y="116" width="62" height="68" as="geometry"/>
        </mxCell>
        <mxCell id="xiWQu05hAZuDvdlsUDa0-47" value="" style="rounded=0;whiteSpace=wrap;html=1;strokeWidth=1;" vertex="1" parent="1">
          <mxGeometry x="150" y="408" width="162" height="6" as="geometry"/>
        </mxCell>
        <mxCell id="xiWQu05hAZuDvdlsUDa0-49" value="" style="rounded=0;whiteSpace=wrap;html=1;strokeWidth=1;" vertex="1" parent="1">
          <mxGeometry x="150" y="396" width="414" height="6" as="geometry"/>
        </mxCell>
        <mxCell id="xiWQu05hAZuDvdlsUDa0-50" value="" style="rounded=0;whiteSpace=wrap;html=1;strokeWidth=1;" vertex="1" parent="1">
          <mxGeometry x="558" y="402" width="6" height="42" as="geometry"/>
        </mxCell>
        <mxCell id="xiWQu05hAZuDvdlsUDa0-51" value="" style="rounded=0;whiteSpace=wrap;html=1;strokeWidth=1;" vertex="1" parent="1">
          <mxGeometry x="312" y="444" width="252" height="6" as="geometry"/>
        </mxCell>
        <mxCell id="xiWQu05hAZuDvdlsUDa0-52" value="" style="rounded=0;whiteSpace=wrap;html=1;strokeWidth=1;" vertex="1" parent="1">
          <mxGeometry x="306" y="414" width="6" height="36" as="geometry"/>
        </mxCell>
        <mxCell id="xiWQu05hAZuDvdlsUDa0-53" value="" style="rounded=0;whiteSpace=wrap;html=1;strokeWidth=1;" vertex="1" parent="1">
          <mxGeometry x="150" y="402" width="18" height="6" as="geometry"/>
        </mxCell>
        <mxCell id="xiWQu05hAZuDvdlsUDa0-54" value="" style="rounded=0;whiteSpace=wrap;html=1;strokeWidth=1;" vertex="1" parent="1">
          <mxGeometry x="168" y="402" width="24" height="6" as="geometry"/>
        </mxCell>
        <mxCell id="xiWQu05hAZuDvdlsUDa0-55" value="" style="rounded=0;whiteSpace=wrap;html=1;strokeWidth=1;" vertex="1" parent="1">
          <mxGeometry x="192" y="402" width="24" height="6" as="geometry"/>
        </mxCell>
        <mxCell id="xiWQu05hAZuDvdlsUDa0-56" value="" style="rounded=0;whiteSpace=wrap;html=1;strokeWidth=1;" vertex="1" parent="1">
          <mxGeometry x="216" y="402" width="24" height="6" as="geometry"/>
        </mxCell>
        <mxCell id="xiWQu05hAZuDvdlsUDa0-57" value="" style="rounded=0;whiteSpace=wrap;html=1;strokeWidth=1;" vertex="1" parent="1">
          <mxGeometry x="240" y="402" width="24" height="6" as="geometry"/>
        </mxCell>
        <mxCell id="xiWQu05hAZuDvdlsUDa0-58" value="" style="rounded=0;whiteSpace=wrap;html=1;strokeWidth=1;" vertex="1" parent="1">
          <mxGeometry x="264" y="402" width="24" height="6" as="geometry"/>
        </mxCell>
        <mxCell id="xiWQu05hAZuDvdlsUDa0-59" value="" style="rounded=0;whiteSpace=wrap;html=1;strokeWidth=1;" vertex="1" parent="1">
          <mxGeometry x="288" y="402" width="24" height="6" as="geometry"/>
        </mxCell>
        <mxCell id="xiWQu05hAZuDvdlsUDa0-60" value="" style="rounded=0;whiteSpace=wrap;html=1;strokeWidth=1;" vertex="1" parent="1">
          <mxGeometry x="312" y="402" width="24" height="42" as="geometry"/>
        </mxCell>
        <mxCell id="xiWQu05hAZuDvdlsUDa0-61" value="" style="rounded=0;whiteSpace=wrap;html=1;strokeWidth=1;" vertex="1" parent="1">
          <mxGeometry x="336" y="402" width="24" height="42" as="geometry"/>
        </mxCell>
        <mxCell id="xiWQu05hAZuDvdlsUDa0-62" value="" style="rounded=0;whiteSpace=wrap;html=1;strokeWidth=1;" vertex="1" parent="1">
          <mxGeometry x="360" y="402" width="30" height="42" as="geometry"/>
        </mxCell>
        <mxCell id="xiWQu05hAZuDvdlsUDa0-63" value="" style="rounded=0;whiteSpace=wrap;html=1;strokeWidth=1;" vertex="1" parent="1">
          <mxGeometry x="385" y="402" width="24" height="42" as="geometry"/>
        </mxCell>
        <mxCell id="xiWQu05hAZuDvdlsUDa0-64" value="" style="rounded=0;whiteSpace=wrap;html=1;strokeWidth=1;" vertex="1" parent="1">
          <mxGeometry x="409" y="402" width="24" height="42" as="geometry"/>
        </mxCell>
        <mxCell id="xiWQu05hAZuDvdlsUDa0-65" value="" style="rounded=0;whiteSpace=wrap;html=1;strokeWidth=1;" vertex="1" parent="1">
          <mxGeometry x="433" y="402" width="24" height="42" as="geometry"/>
        </mxCell>
        <mxCell id="xiWQu05hAZuDvdlsUDa0-66" value="" style="rounded=0;whiteSpace=wrap;html=1;strokeWidth=1;" vertex="1" parent="1">
          <mxGeometry x="457" y="402" width="24" height="42" as="geometry"/>
        </mxCell>
        <mxCell id="xiWQu05hAZuDvdlsUDa0-67" value="" style="rounded=0;whiteSpace=wrap;html=1;strokeWidth=1;" vertex="1" parent="1">
          <mxGeometry x="481" y="402" width="24" height="42" as="geometry"/>
        </mxCell>
        <mxCell id="xiWQu05hAZuDvdlsUDa0-68" value="" style="rounded=0;whiteSpace=wrap;html=1;strokeWidth=1;" vertex="1" parent="1">
          <mxGeometry x="505" y="402" width="24" height="42" as="geometry"/>
        </mxCell>
        <mxCell id="xiWQu05hAZuDvdlsUDa0-69" value="" style="rounded=0;whiteSpace=wrap;html=1;strokeWidth=1;" vertex="1" parent="1">
          <mxGeometry x="528" y="402" width="30" height="42" as="geometry"/>
        </mxCell>
        <mxCell id="xiWQu05hAZuDvdlsUDa0-70" value="" style="line;strokeWidth=1;direction=south;html=1;" vertex="1" parent="1">
          <mxGeometry x="168" y="414" width="10" height="234" as="geometry"/>
        </mxCell>
        <mxCell id="xiWQu05hAZuDvdlsUDa0-71" value="" style="line;strokeWidth=1;direction=south;html=1;" vertex="1" parent="1">
          <mxGeometry x="542" y="450" width="10" height="198" as="geometry"/>
        </mxCell>
        <mxCell id="xiWQu05hAZuDvdlsUDa0-77" value="" style="rounded=0;whiteSpace=wrap;html=1;strokeWidth=1;" vertex="1" parent="1">
          <mxGeometry x="302" y="414" width="4" height="234" as="geometry"/>
        </mxCell>
        <mxCell id="xiWQu05hAZuDvdlsUDa0-78" value="" style="rounded=0;whiteSpace=wrap;html=1;strokeWidth=1;" vertex="1" parent="1">
          <mxGeometry x="328" y="450" width="4" height="198" as="geometry"/>
        </mxCell>
        <mxCell id="xiWQu05hAZuDvdlsUDa0-79" value="" style="rounded=0;whiteSpace=wrap;html=1;strokeWidth=1;" vertex="1" parent="1">
          <mxGeometry x="355" y="450" width="4" height="198" as="geometry"/>
        </mxCell>
        <mxCell id="xiWQu05hAZuDvdlsUDa0-80" value="" style="rounded=0;whiteSpace=wrap;html=1;strokeWidth=1;" vertex="1" parent="1">
          <mxGeometry x="383" y="450" width="4" height="198" as="geometry"/>
        </mxCell>
        <mxCell id="xiWQu05hAZuDvdlsUDa0-81" value="" style="rounded=0;whiteSpace=wrap;html=1;strokeWidth=1;" vertex="1" parent="1">
          <mxGeometry x="409" y="450" width="4" height="198" as="geometry"/>
        </mxCell>
        <mxCell id="xiWQu05hAZuDvdlsUDa0-85" value="" style="rounded=0;whiteSpace=wrap;html=1;strokeWidth=1;" vertex="1" parent="1">
          <mxGeometry x="519" y="450" width="4" height="198" as="geometry"/>
        </mxCell>
        <mxCell id="xiWQu05hAZuDvdlsUDa0-86" value="" style="rounded=0;whiteSpace=wrap;html=1;strokeWidth=1;" vertex="1" parent="1">
          <mxGeometry x="189" y="423" width="96" height="48" as="geometry"/>
        </mxCell>
        <mxCell id="xiWQu05hAZuDvdlsUDa0-88" value="" style="line;strokeWidth=1;direction=south;html=1;" vertex="1" parent="1">
          <mxGeometry x="232" y="423" width="10" height="48" as="geometry"/>
        </mxCell>
        <mxCell id="xiWQu05hAZuDvdlsUDa0-89" value="" style="rounded=0;whiteSpace=wrap;html=1;strokeWidth=1;" vertex="1" parent="1">
          <mxGeometry x="427" y="492" width="72" height="156" as="geometry"/>
        </mxCell>
        <mxCell id="xiWQu05hAZuDvdlsUDa0-91" value="" style="rounded=0;whiteSpace=wrap;html=1;strokeWidth=1;" vertex="1" parent="1">
          <mxGeometry x="439" y="588" width="18" height="49" as="geometry"/>
        </mxCell>
        <mxCell id="xiWQu05hAZuDvdlsUDa0-92" value="" style="rounded=0;whiteSpace=wrap;html=1;strokeWidth=1;" vertex="1" parent="1">
          <mxGeometry x="469" y="588" width="18" height="49" as="geometry"/>
        </mxCell>
        <mxCell id="xiWQu05hAZuDvdlsUDa0-93" value="" style="rounded=0;whiteSpace=wrap;html=1;strokeWidth=1;" vertex="1" parent="1">
          <mxGeometry x="439" y="510" width="48" height="66" as="geometry"/>
        </mxCell>
      </root>
    </mxGraphModel>
  </diagram>
</mxfile>
